<svg id="icon-arrows-left-right-to-line" viewbox="0 0 576 512" xmlns="http://www.w3.org/2000/svg"><!-- arrows-left-right-to-line (solid): Font Awesome Free 7.0.0 CC BY 4.0--><path d="M32 96C14.3 96 0 110.3 0 128L0 384c0 17.7 14.3 32 32 32s32-14.3 32-32l0-256c0-17.7-14.3-32-32-32zM390.6 342.6l64-64c12.5-12.5 12.5-32.8 0-45.3l-64-64c-12.5-12.5-32.8-12.5-45.3 0s-12.5 32.8 0 45.3l9.4 9.4-133.5 0 9.4-9.4c12.5-12.5 12.5-32.8 0-45.3s-32.8-12.5-45.3 0l-64 64c-6 6-9.4 14.1-9.4 22.6s3.4 16.6 9.4 22.6l64 64c12.5 12.5 32.8 12.5 45.3 0s12.5-32.8 0-45.3l-9.4-9.4 133.5 0-9.4 9.4c-12.5 12.5-12.5 32.8 0 45.3s32.8 12.5 45.3 0zM576 128c0-17.7-14.3-32-32-32s-32 14.3-32 32l0 256c0 17.7 14.3 32 32 32s32-14.3 32-32l0-256z" fill="currentColor"></path></svg>