<svg id="icon-border-none" viewbox="0 0 448 512" xmlns="http://www.w3.org/2000/svg"><!-- border-none (solid): Font Awesome Free 7.0.0 CC BY 4.0--><path d="M32 416c-17.7 0-32 14.3-32 32s14.3 32 32 32 32-14.3 32-32-14.3-32-32-32zM160 32a32 32 0 1 0 0 64 32 32 0 1 0 0-64zM288 416c-17.7 0-32 14.3-32 32s14.3 32 32 32 32-14.3 32-32-14.3-32-32-32zM160 480c17.7 0 32-14.3 32-32s-14.3-32-32-32-32 14.3-32 32 14.3 32 32 32zM288 32a32 32 0 1 0 0 64 32 32 0 1 0 0-64zM416 480c17.7 0 32-14.3 32-32s-14.3-32-32-32-32 14.3-32 32 14.3 32 32 32zm0-384a32 32 0 1 0 0-64 32 32 0 1 0 0 64zM32 32a32 32 0 1 0 0 64 32 32 0 1 0 0-64zM416 352a32 32 0 1 0 0-64 32 32 0 1 0 0 64zM32 160a32 32 0 1 0 0 64 32 32 0 1 0 0-64zm0 192a32 32 0 1 0 0-64 32 32 0 1 0 0 64zM416 160a32 32 0 1 0 0 64 32 32 0 1 0 0-64z" fill="currentColor"></path></svg>