<svg id="icon-ethernet" viewbox="0 0 512 512" xmlns="http://www.w3.org/2000/svg"><!-- ethernet (solid): Font Awesome Free 7.0.0 CC BY 4.0--><path d="M0 224L0 416c0 17.7 14.3 32 32 32l32 0 0-104c0-13.3 10.7-24 24-24s24 10.7 24 24l0 104 64 0 0-104c0-13.3 10.7-24 24-24s24 10.7 24 24l0 104 64 0 0-104c0-13.3 10.7-24 24-24s24 10.7 24 24l0 104 64 0 0-104c0-13.3 10.7-24 24-24s24 10.7 24 24l0 104 32 0c17.7 0 32-14.3 32-32l0-192c0-17.7-14.3-32-32-32l-32 0 0-32c0-17.7-14.3-32-32-32l-32 0 0-32c0-17.7-14.3-32-32-32L160 64c-17.7 0-32 14.3-32 32l0 32-32 0c-17.7 0-32 14.3-32 32l0 32-32 0c-17.7 0-32 14.3-32 32z" fill="currentColor"></path></svg>