<svg id="icon-grid-vertical" viewbox="0 0 320 512" xmlns="http://www.w3.org/2000/svg"><!-- grid-vertical (solid): Font Awesome Free 7.0.0 CC BY 4.0--><path d="M128 40c0-22.1-17.9-40-40-40L40 0C17.9 0 0 17.9 0 40L0 88c0 22.1 17.9 40 40 40l48 0c22.1 0 40-17.9 40-40l0-48zm0 192c0-22.1-17.9-40-40-40l-48 0c-22.1 0-40 17.9-40 40l0 48c0 22.1 17.9 40 40 40l48 0c22.1 0 40-17.9 40-40l0-48zM0 424l0 48c0 22.1 17.9 40 40 40l48 0c22.1 0 40-17.9 40-40l0-48c0-22.1-17.9-40-40-40l-48 0c-22.1 0-40 17.9-40 40zM320 40c0-22.1-17.9-40-40-40L232 0c-22.1 0-40 17.9-40 40l0 48c0 22.1 17.9 40 40 40l48 0c22.1 0 40-17.9 40-40l0-48zM192 232l0 48c0 22.1 17.9 40 40 40l48 0c22.1 0 40-17.9 40-40l0-48c0-22.1-17.9-40-40-40l-48 0c-22.1 0-40 17.9-40 40zM320 424c0-22.1-17.9-40-40-40l-48 0c-22.1 0-40 17.9-40 40l0 48c0 22.1 17.9 40 40 40l48 0c22.1 0 40-17.9 40-40l0-48z" fill="currentColor"></path></svg>