<svg id="icon-header" viewbox="0 0 448 512" xmlns="http://www.w3.org/2000/svg"><!-- header (solid): Font Awesome Free 7.0.0 CC BY 4.0--><path d="M0 64C0 46.3 14.3 32 32 32l96 0c17.7 0 32 14.3 32 32s-14.3 32-32 32l-16 0 0 112 224 0 0-112-16 0c-17.7 0-32-14.3-32-32s14.3-32 32-32l96 0c17.7 0 32 14.3 32 32s-14.3 32-32 32l-16 0 0 320 16 0c17.7 0 32 14.3 32 32s-14.3 32-32 32l-96 0c-17.7 0-32-14.3-32-32s14.3-32 32-32l16 0 0-144-224 0 0 144 16 0c17.7 0 32 14.3 32 32s-14.3 32-32 32l-96 0c-17.7 0-32-14.3-32-32s14.3-32 32-32l16 0 0-320-16 0C14.3 96 0 81.7 0 64z" fill="currentColor"></path></svg>