<svg id="icon-laugh-wink" viewbox="0 0 512 512" xmlns="http://www.w3.org/2000/svg"><!-- laugh-wink (solid): Font Awesome Free 7.0.0 CC BY 4.0--><path d="M256 512a256 256 0 1 0 0-512 256 256 0 1 0 0 512zM101.6 314c-3.7-13.7 7.5-26 21.7-26l265.4 0c14.2 0 25.4 12.3 21.7 26-18.5 68-80.6 118-154.4 118S120 382 101.6 314zM144 192a32 32 0 1 1 64 0 32 32 0 1 1 -64 0zm164 8c0 11-9 20-20 20s-20-9-20-20c0-33.1 26.9-60 60-60l16 0c33.1 0 60 26.9 60 60 0 11-9 20-20 20s-20-9-20-20-9-20-20-20l-16 0c-11 0-20 9-20 20z" fill="currentColor"></path></svg>