<svg id="icon-not-equal" viewbox="0 0 448 512" xmlns="http://www.w3.org/2000/svg"><!-- not-equal (solid): Font Awesome Free 7.0.0 CC BY 4.0--><path d="M378.6 81.8c9.8-14.7 5.8-34.6-8.9-44.4s-34.6-5.8-44.4 8.9L270.9 128 32 128c-17.7 0-32 14.3-32 32s14.3 32 32 32l196.2 0-85.3 128-110.9 0c-17.7 0-32 14.3-32 32s14.3 32 32 32l68.2 0-30.8 46.2c-9.8 14.7-5.8 34.6 8.9 44.4s34.6 5.8 44.4-8.9L177.1 384 416 384c17.7 0 32-14.3 32-32s-14.3-32-32-32l-196.2 0 85.3-128 110.9 0c17.7 0 32-14.3 32-32s-14.3-32-32-32l-68.2 0 30.8-46.2z" fill="currentColor"></path></svg>