<svg id="icon-ruler-horizontal" viewbox="0 0 576 512" xmlns="http://www.w3.org/2000/svg"><!-- ruler-horizontal (solid): Font Awesome Free 7.0.0 CC BY 4.0--><path d="M48 384c-26.5 0-48-21.5-48-48L0 176c0-26.5 21.5-48 48-48l24 0 0 104c0 13.3 10.7 24 24 24s24-10.7 24-24l0-104 48 0 0 72c0 13.3 10.7 24 24 24s24-10.7 24-24l0-72 48 0 0 104c0 13.3 10.7 24 24 24s24-10.7 24-24l0-104 48 0 0 72c0 13.3 10.7 24 24 24s24-10.7 24-24l0-72 48 0 0 104c0 13.3 10.7 24 24 24s24-10.7 24-24l0-104 24 0c26.5 0 48 21.5 48 48l0 160c0 26.5-21.5 48-48 48L48 384z" fill="currentColor"></path></svg>