<svg id="icon-signal-5" viewbox="0 0 512 512" xmlns="http://www.w3.org/2000/svg"><!-- signal-5 (solid): Font Awesome Free 7.0.0 CC BY 4.0--><path d="M488 56c0-13.3-10.7-24-24-24s-24 10.7-24 24l0 400c0 13.3 10.7 24 24 24s24-10.7 24-24l0-400zM360 128c-13.3 0-24 10.7-24 24l0 304c0 13.3 10.7 24 24 24s24-10.7 24-24l0-304c0-13.3-10.7-24-24-24zM280 248c0-13.3-10.7-24-24-24s-24 10.7-24 24l0 208c0 13.3 10.7 24 24 24s24-10.7 24-24l0-208zM152 320c-13.3 0-24 10.7-24 24l0 112c0 13.3 10.7 24 24 24s24-10.7 24-24l0-112c0-13.3-10.7-24-24-24zM48 384c-13.3 0-24 10.7-24 24l0 48c0 13.3 10.7 24 24 24s24-10.7 24-24l0-48c0-13.3-10.7-24-24-24z" fill="currentColor"></path></svg>