<svg id="icon-square-poll-vertical" viewbox="0 0 448 512" xmlns="http://www.w3.org/2000/svg"><!-- square-poll-vertical (solid): Font Awesome Free 7.0.0 CC BY 4.0--><path d="M64 32C28.7 32 0 60.7 0 96L0 416c0 35.3 28.7 64 64 64l320 0c35.3 0 64-28.7 64-64l0-320c0-35.3-28.7-64-64-64L64 32zm56 192c13.3 0 24 10.7 24 24l0 112c0 13.3-10.7 24-24 24s-24-10.7-24-24l0-112c0-13.3 10.7-24 24-24zm184 88c0-13.3 10.7-24 24-24s24 10.7 24 24l0 48c0 13.3-10.7 24-24 24s-24-10.7-24-24l0-48zM224 128c13.3 0 24 10.7 24 24l0 208c0 13.3-10.7 24-24 24s-24-10.7-24-24l0-208c0-13.3 10.7-24 24-24z" fill="currentColor"></path></svg>