<svg id="icon-buromobelexperte" viewbox="0 0 448 512" xmlns="http://www.w3.org/2000/svg"><!-- buromobelexperte (brands): Font Awesome Free 7.0.0 CC BY 4.0--><path d="M0 32l0 128 128 0 0-128-128 0zM120 152l-112 0 0-112 112 0 0 112zM160 32l0 128 128 0 0-128-128 0zM280 152l-112 0 0-112 112 0 0 112zM320 32l0 128 128 0 0-128-128 0zM440 152l-112 0 0-112 112 0 0 112zM0 192l0 128 128 0 0-128-128 0zM120 312l-112 0 0-112 112 0 0 112zm40-120l0 128 128 0 0-128-128 0zM280 312l-112 0 0-112 112 0 0 112zm40-120l0 128 128 0 0-128-128 0zM440 312l-112 0 0-112 112 0 0 112zM0 352l0 128 128 0 0-128-128 0zM120 472l-112 0 0-112 112 0 0 112zm40-120l0 128 128 0 0-128-128 0zM280 472l-112 0 0-112 112 0 0 112zm40-120l0 128 128 0 0-128-128 0z" fill="currentColor"></path></svg>