<svg id="icon-calendar-minus" viewbox="0 0 448 512" xmlns="http://www.w3.org/2000/svg"><!-- calendar-minus (regular): Font Awesome Free 7.0.0 CC BY 4.0--><path d="M120 0c13.3 0 24 10.7 24 24l0 40 160 0 0-40c0-13.3 10.7-24 24-24s24 10.7 24 24l0 40 32 0c35.3 0 64 28.7 64 64l0 288c0 35.3-28.7 64-64 64L64 480c-35.3 0-64-28.7-64-64L0 128C0 92.7 28.7 64 64 64l32 0 0-40c0-13.3 10.7-24 24-24zm0 112l-56 0c-8.8 0-16 7.2-16 16l0 288c0 8.8 7.2 16 16 16l320 0c8.8 0 16-7.2 16-16l0-288c0-8.8-7.2-16-16-16l-264 0zm32 136l144 0c13.3 0 24 10.7 24 24s-10.7 24-24 24l-144 0c-13.3 0-24-10.7-24-24s10.7-24 24-24z" fill="currentColor"></path></svg>