<svg id="icon-circle-xmark" viewbox="0 0 512 512" xmlns="http://www.w3.org/2000/svg"><!-- circle-xmark (regular): Font Awesome Free 7.0.0 CC BY 4.0--><path d="M256 48a208 208 0 1 1 0 416 208 208 0 1 1 0-416zm0 464a256 256 0 1 0 0-512 256 256 0 1 0 0 512zM167 167c-9.4 9.4-9.4 24.6 0 33.9l55 55-55 55c-9.4 9.4-9.4 24.6 0 33.9s24.6 9.4 33.9 0l55-55 55 55c9.4 9.4 24.6 9.4 33.9 0s9.4-24.6 0-33.9l-55-55 55-55c9.4-9.4 9.4-24.6 0-33.9s-24.6-9.4-33.9 0l-55 55-55-55c-9.4-9.4-24.6-9.4-33.9 0z" fill="currentColor"></path></svg>