<svg id="icon-copyright" viewbox="0 0 512 512" xmlns="http://www.w3.org/2000/svg"><!-- copyright (regular): Font Awesome Free 7.0.0 CC BY 4.0--><path d="M256 48a208 208 0 1 1 0 416 208 208 0 1 1 0-416zm0 464a256 256 0 1 0 0-512 256 256 0 1 0 0 512zM205.1 306.9c-28.1-28.1-28.1-73.7 0-101.8s73.7-28.1 101.8 0c9.4 9.4 24.6 9.4 33.9 0s9.4-24.6 0-33.9c-46.9-46.9-122.8-46.9-169.7 0s-46.9 122.8 0 169.7 122.8 46.9 169.7 0c9.4-9.4 9.4-24.6 0-33.9s-24.6-9.4-33.9 0c-28.1 28.1-73.7 28.1-101.8 0z" fill="currentColor"></path></svg>